<svg id="Capa_1" enable-background="new 0 0 512 512" height="512" viewBox="0 0 512 512" width="512" xmlns="http://www.w3.org/2000/svg"><g><g><path d="m172.016 354.82s102.817-16.234 102.817-112.287c0-48.026-19.955-81.171-44.306-102.309 0 0-51.543-34.626-19.483-133.536 1.365-4.21-2.931-8.049-6.961-6.22-11.876 5.389-31.209 16.386-44.214 35.08-26.713 38.401-20.459 83.498-11.752 112.405 4.449 14.771-6.607 29.644-22.034 29.644h-.106c-13.721 0-24.453-11.985-22.764-25.602 2.007-16.174 5.609-27.538 8.347-34.338 1.487-3.692-1.634-7.563-5.566-6.945-36.192 5.684-90.683 43.866-84.765 131.822 6.737 100.111 102.817 112.286 102.817 112.286z" fill="#f97c15"/><path d="m274.835 242.533c0 96.058-102.823 112.287-102.823 112.287h-47.962s-52.623-6.663-82.71-50.701c82.76-28.31 142.261-106.769 142.261-199.127 0-28.125-5.519-54.963-15.524-79.491 12.029-12.714 26.439-20.685 36.005-25.029 4.027-1.829 8.329 2.003 6.96 6.214-32.06 98.909 19.49 133.534 19.49 133.534 24.343 21.146 44.303 54.289 44.303 102.313z" fill="#e86300"/><path d="m270.111 125.475c5.644 0 10.22-4.576 10.22-10.22v-12.346c0-16.448-13.334-29.782-29.782-29.782-5.644 0-10.22 4.576-10.22 10.22v12.346c0 16.448 13.334 29.782 29.782 29.782z" fill="#ffaf40"/><path d="m58.689 138.297c-5.644 0-10.22-4.576-10.22-10.22v-12.346c0-16.448 13.334-29.782 29.782-29.782 5.644 0 10.22 4.576 10.22 10.22v12.346c0 16.448-13.333 29.782-29.782 29.782z" fill="#ffaf40"/><path d="m109.221 51.54c-4.416 0-7.995-3.58-7.995-7.995v-9.659c0-12.868 10.431-23.299 23.299-23.299 4.416 0 7.995 3.58 7.995 7.995v9.659c0 12.868-10.432 23.299-23.299 23.299z" fill="#ffc751"/><path d="m46.607 274.392c.09-.05.18-.101.27-.151 5.888-3.302 8.812-10.085 7.347-16.675-1.196-5.383-1.996-11.075-2.4-17.088-1.613-23.952 2.112-44.946 10.818-61.696 2.37-4.559 2.284-10.001-.237-14.478l-.163-.29c-5.911-10.5-21.115-10.291-26.715.378-10.391 19.799-16.494 45.551-14.302 78.139.532 7.915 1.624 15.28 3.183 22.132 2.238 9.837 13.402 14.664 22.199 9.729z" fill="#ff993a"/><path d="m53.45 206.645c.677-3.819 1.529-7.515 2.556-11.079 2.073-7.193-1.524-14.794-8.328-17.915-.093-.043-.186-.085-.279-.128-8.397-3.862-18.337.617-20.9 9.498-1.326 4.595-2.445 9.42-3.328 14.479-1.618 9.262 5.602 17.722 15.004 17.722h.304c7.381-.001 13.682-5.309 14.971-12.577z" fill="#ffaf40"/></g><g><g><g><g><g><path d="m370.166 179.285-117.69-18.481c-4.847-.761-9.766.841-13.236 4.31l-184.51 184.51c-5.995 5.995-5.995 15.714 0 21.709l136.171 136.171c5.995 5.995 15.714 5.995 21.709 0l184.51-184.51c3.47-3.47 5.071-8.389 4.31-13.236l-18.481-117.69c-1.034-6.584-6.199-11.749-12.783-12.783zm-43.452 30.011c7.245-7.245 18.99-7.245 26.23-.005s7.24 18.985-.005 26.23c-7.24 7.24-18.985 7.24-26.225 0-7.24-7.241-7.24-18.985 0-26.225z" fill="#595751"/></g></g></g><g><g><g><path d="m397.117 322.992-184.504 184.516c-5.997 5.986-15.722 5.986-21.708 0l-136.175-136.176c-5.997-5.997-5.997-15.71 0-21.708l11.769-11.769c37.283 30.946 85.159 49.548 137.396 49.548 83.352 0 155.636-47.368 191.416-116.648l6.122 38.999c.755 4.846-.848 9.771-4.316 13.238z" fill="#44433f"/></g></g></g><g><path d="m491.219 246.746c0 46.424-37.765 84.189-84.189 84.189-5.565 0-10.997-.54-16.262-1.583l6.356-6.356c3.466-3.466 5.073-8.395 4.305-13.24l-.492-3.118c2.003.204 4.042.312 6.092.312 33.196 0 60.204-27.008 60.204-60.204s-27.008-60.204-60.204-60.204c-30.713 0-56.138 23.11-59.772 52.864-6.788 2.962-14.991 1.667-20.544-3.886-1.019-1.019-1.895-2.135-2.626-3.31 6.908-39.516 41.471-69.654 82.942-69.654 46.424.001 84.19 37.766 84.19 84.19z" fill="#8f8b81"/></g><g><path d="m407.03 186.543c28.932 0 53.158 20.517 58.904 47.765 1.183 5.611 6.027 9.692 11.762 9.692 7.654 0 13.281-7.064 11.71-14.555-7.998-38.15-41.883-66.887-82.376-66.887-9.242 0-18.136 1.503-26.457 4.272-8.067 2.685-10.975 12.577-5.516 19.095l.072.087c3.139 3.747 8.247 5.167 12.883 3.616 5.98-2 12.374-3.085 19.018-3.085z" fill="#b5b1a4"/></g><g><path d="m410.029 175.984v.244c0 5.561 3.845 10.45 9.289 11.584 5.827 1.213 11.348 3.271 16.427 6.04 4.54 2.475 10.136 1.894 13.922-1.627.059-.055.118-.11.178-.165 5.878-5.467 4.81-15.151-2.215-19.036-7.151-3.955-14.937-6.898-23.162-8.636-7.427-1.571-14.439 4.005-14.439 11.596z" fill="#d8d4c9"/></g><g fill="#706c64"><path d="m326.911 220.879c-1.197 3.672-2.146 7.455-2.823 11.332.732 1.175 1.607 2.291 2.626 3.31 5.553 5.553 13.756 6.848 20.544 3.886.464-3.795 1.291-7.477 2.439-11.015 1.507-4.645.128-9.745-3.622-12.873-.063-.052-.126-.105-.188-.157-6.501-5.426-16.352-2.534-18.976 5.517z"/><path d="m428.573 318.297c0-7.245-6.375-12.845-13.555-11.88-2.613.351-5.28.533-7.989.533-2.051 0-4.09-.108-6.092-.312l.492 3.121c.764 4.847-.836 9.767-4.306 13.237l-6.356 6.356c5.265 1.043 10.698 1.583 16.262 1.583 3.772 0 7.484-.253 11.124-.74 5.964-.797 10.42-5.881 10.42-11.898z"/></g></g><g><g><g><path d="m150.081 302.195 88.316-88.316c6.617-6.617 6.617-17.344 0-23.961-6.617-6.617-17.344-6.617-23.961 0l-88.316 88.316c-6.617 6.617-6.617 17.344 0 23.961 6.616 6.617 17.344 6.617 23.961 0z" fill="#706c64"/></g></g></g><g><g><g><path d="m193.714 210.639-6.572 6.572c-6.56 6.56-6.56 17.195 0 23.755l.206.206c6.56 6.56 17.195 6.56 23.755 0l6.572-6.572c6.555-6.555 6.57-17.189.013-23.742-.08-.08-.16-.16-.24-.24-6.553-6.549-17.182-6.53-23.734.021z" fill="#8f8b81"/></g></g></g></g><g><circle cx="227.157" cy="334.765" fill="#ffc751" r="93.607"/><g><g><path d="m320.769 334.763c0 51.697-41.916 93.613-93.613 93.613-6.137 0-12.123-.589-17.921-1.728 46.162-7.326 81.44-47.314 81.44-95.542 0-40.789-25.235-75.68-60.952-89.919 50.507 1.365 91.046 42.743 91.046 93.576z" fill="#ffaf40"/><path d="m184.006 397.425c.09-.09.181-.18.271-.271 6.967-6.959 7.24-18.101.747-25.504-8.649-9.861-13.898-22.771-13.898-36.888 0-24.227 15.459-44.9 37.03-52.697 7.344-2.654 12.133-9.759 12.133-17.567 0-12.993-12.901-22.14-25.113-17.703-35.946 13.061-61.62 47.504-61.62 87.967 0 23.677 8.792 45.295 23.29 61.774 7.106 8.08 19.547 8.494 27.16.889z" fill="#ffe059"/><path d="m162.289 267.328c-8.255 7.936-15.055 17.373-19.963 27.873-5.78 12.366 3.176 26.558 16.826 26.558h.416c7.205 0 13.763-4.161 16.822-10.684 2.922-6.231 6.961-11.839 11.856-16.566 7.069-6.825 7.593-17.944 1.246-25.445-.082-.097-.165-.195-.247-.292-6.886-8.131-19.275-8.829-26.956-1.444z" fill="#fff370"/></g></g><g><g><g><g><path d="m193.99 282.556c-10.499 0-19.041 8.542-19.041 19.041s8.542 19.041 19.041 19.041 19.041-8.542 19.041-19.041-8.542-19.041-19.041-19.041z" fill="#fe255f"/></g></g><g><g><path d="m260.33 348.897c-10.499 0-19.041 8.542-19.041 19.041s8.542 19.041 19.041 19.041 19.041-8.542 19.041-19.041c0-10.5-8.542-19.041-19.041-19.041z" fill="#fe255f"/></g></g></g><g><g><path d="m189.178 372.749c-5.98-5.98-5.98-15.676 0-21.657l58.261-58.261c5.98-5.98 15.676-5.98 21.657 0 5.98 5.98 5.98 15.676 0 21.657l-58.261 58.261c-5.981 5.98-15.677 5.98-21.657 0z" fill="#fe255f"/></g><path d="m227.518 312.752-10.909 10.909c-5.98 5.98-5.98 15.676 0 21.657 5.98 5.98 15.676 5.98 21.657 0l10.909-10.909c5.98-5.98 5.98-15.676 0-21.657-5.98-5.98-15.676-5.98-21.657 0z" fill="#fc709b"/></g></g></g></g></svg>