<svg id="Capa_1" enable-background="new 0 0 512 512" height="512" viewBox="0 0 512 512" width="512" xmlns="http://www.w3.org/2000/svg"><g><g><g><g><g><g><path d="m492 496.531h-472c-11.046 0-20-8.954-20-20v-441.062c0-11.046 8.954-20 20-20h472c11.046 0 20 8.954 20 20v441.062c0 11.046-8.954 20-20 20z" fill="#706c64"/><path d="m512 35.47v441.06c0 11.05-8.95 20-20 20h-266.96c142.11-56.47 242.57-195.22 242.57-357.44 0-18.06-1.24-35.83-3.66-53.22-3.35-24.27-8.98-47.81-16.65-70.4h44.7c11.05 0 20 8.95 20 20z" fill="#595751"/><path d="m0 154.087v163.899c0 11.051 8.959 20.01 20.01 20.01 11.051 0 20.01-8.959 20.01-20.01v-163.899c0-11.051-8.959-20.01-20.01-20.01-11.051 0-20.01 8.959-20.01 20.01z" fill="#8f8b81"/><path d="m0 235.617v32.738c0 11.051 8.959 20.01 20.01 20.01 11.051 0 20.01-8.959 20.01-20.01v-32.738c0-11.051-8.959-20.01-20.01-20.01-11.051 0-20.01 8.959-20.01 20.01z" fill="#b5b1a4"/><path d="m512 35.47v50.4h-512v-50.4c0-11.05 8.95-20 20-20h472c11.05 0 20 8.95 20 20z" fill="#8f8b81"/></g></g></g></g><g><g><g><circle cx="126.821" cy="50.67" fill="#fe255f" r="11.715"/><circle cx="124.581" cy="48.363" fill="#fc709b" r="8.505"/></g><g><circle cx="160.871" cy="50.67" fill="#ffc751" r="11.715"/><circle cx="158.631" cy="48.363" fill="#ffe059" r="8.505"/></g><g><circle cx="194.921" cy="50.67" fill="#29e088" r="11.715"/><circle cx="192.681" cy="48.363" fill="#79ff79" r="8.505"/></g></g><path d="m386.894 66.512h-137.898c-5.523 0-10-4.477-10-10v-11.684c0-5.523 4.477-10 10-10h137.898c5.523 0 10 4.477 10 10v11.685c0 5.522-4.477 9.999-10 9.999z" fill="#d8d4c9"/><path d="m324.257 34.828h-48.53c-8.749 0-15.842 7.093-15.842 15.842 0 8.749 7.093 15.842 15.842 15.842h48.53c8.749 0 15.842-7.093 15.842-15.842.001-8.75-7.092-15.842-15.842-15.842z" fill="#f1eee0"/><path d="m101.358 15.47h-68.53c-8.749 0-15.842 7.093-15.842 15.842 0 8.749 7.093 15.842 15.842 15.842h68.53c8.749 0 15.842-7.093 15.842-15.842.001-8.749-7.092-15.842-15.842-15.842z" fill="#b5b1a4"/></g><path d="m512 35.47v50.4h-48.05c-3.35-24.27-8.98-47.81-16.65-70.4h44.7c11.05 0 20 8.95 20 20z" fill="#706c64"/></g><g><circle cx="255.997" cy="221.287" fill="#ffc751" r="101.01"/><g><g><path d="m357.012 221.284c0 55.786-45.231 101.017-101.017 101.017-6.622 0-13.082-.635-19.339-1.865 49.812-7.906 87.881-51.056 87.881-103.098 0-44.015-27.231-81.665-65.772-97.03 54.503 1.473 98.247 46.123 98.247 100.976z" fill="#ffaf40"/><path d="m209.433 288.902c.097-.097.195-.195.292-.292 7.518-7.51 7.813-19.532.806-27.521-9.333-10.641-14.997-24.572-14.997-39.805 0-26.143 16.682-48.451 39.958-56.864 7.924-2.864 13.093-10.53 13.093-18.957 0-14.021-13.921-23.891-27.099-19.103-38.788 14.094-66.494 51.261-66.494 94.923 0 25.55 9.488 48.877 25.131 66.66 7.671 8.719 21.096 9.166 29.31.959z" fill="#ffe059"/><path d="m185.999 148.517c-8.908 8.564-16.246 18.747-21.542 30.077-6.237 13.344 3.428 28.658 18.157 28.658h.449c7.775 0 14.851-4.49 18.153-11.529 3.154-6.724 7.511-12.775 12.793-17.876 7.628-7.365 8.194-19.363 1.345-27.457-.089-.105-.178-.21-.267-.315-7.431-8.775-20.8-9.527-29.088-1.558z" fill="#fff370"/></g></g><g><g><g><g><path d="m220.207 164.949c-11.329 0-20.546 9.217-20.546 20.547 0 11.329 9.217 20.546 20.546 20.546 11.33 0 20.547-9.217 20.547-20.546 0-11.33-9.218-20.547-20.547-20.547z" fill="#fe255f"/></g></g><g><g><path d="m291.793 236.536c-11.33 0-20.547 9.217-20.547 20.546 0 11.33 9.217 20.547 20.547 20.547 11.329 0 20.546-9.217 20.546-20.547.001-11.329-9.216-20.546-20.546-20.546z" fill="#fe255f"/></g></g></g><g><g><path d="m215.014 262.274c-6.453-6.453-6.453-16.916 0-23.369l62.869-62.869c6.453-6.453 16.916-6.453 23.369 0 6.453 6.453 6.453 16.916 0 23.369l-62.869 62.869c-6.453 6.454-16.915 6.454-23.369 0z" fill="#fe255f"/></g><path d="m256.387 197.533-11.771 11.771c-6.453 6.453-6.453 16.916 0 23.369 6.453 6.453 16.916 6.453 23.369 0l11.771-11.771c6.453-6.453 6.453-16.916 0-23.369-6.453-6.454-16.916-6.454-23.369 0z" fill="#fc709b"/></g></g></g><g><g><path d="m354.107 373.292c0 9.921-8.042 17.963-17.963 17.963h-160.288c-9.921 0-17.963-8.042-17.963-17.963 0-9.921 8.042-17.963 17.963-17.963h160.288c9.921 0 17.963 8.042 17.963 17.963z" fill="#ffc751"/><path d="m201.834 391.256h68.145c9.921 0 17.963-8.042 17.963-17.963 0-9.921-8.042-17.963-17.963-17.963h-68.145c-9.921 0-17.963 8.042-17.963 17.963 0 9.92 8.042 17.963 17.963 17.963z" fill="#ffe059"/></g><g><path d="m354.107 432.96c0 9.921-8.042 17.963-17.963 17.963h-160.288c-9.921 0-17.963-8.042-17.963-17.963 0-9.921 8.042-17.963 17.963-17.963h160.288c9.921 0 17.963 8.042 17.963 17.963z" fill="#ffc751"/><path d="m236.963 450.923h28.145c9.921 0 17.963-8.042 17.963-17.963 0-9.921-8.042-17.963-17.963-17.963h-28.145c-9.921 0-17.963 8.042-17.963 17.963 0 9.921 8.043 17.963 17.963 17.963z" fill="#ffe059"/></g></g></g></svg>