<svg id="Capa_1" enable-background="new 0 0 512 512" height="512" viewBox="0 0 512 512" width="512" xmlns="http://www.w3.org/2000/svg"><g><g><g><path d="m392.61 63.807 15.791-5.935c3.055-1.148 6.499-.416 8.823 1.875l12.012 11.845c1.444 1.424 3.356 2.275 5.381 2.396l16.84 1.001c3.258.194 6.106 2.263 7.297 5.302l6.155 15.706c.74 1.888 2.141 3.444 3.941 4.377l14.977 7.763c2.898 1.502 4.658 4.551 4.51 7.811l-.765 16.852c-.092 2.026.555 4.017 1.82 5.602l10.525 13.184c2.036 2.551 2.404 6.052.943 8.97l-7.553 15.084c-.908 1.814-1.127 3.895-.616 5.858l4.252 16.325c.823 3.158-.265 6.507-2.787 8.578l-13.036 10.708c-1.567 1.287-2.614 3.1-2.945 5.101l-2.755 16.643c-.533 3.22-2.889 5.836-6.035 6.703l-16.264 4.48c-1.955.539-3.649 1.769-4.765 3.462l-9.286 14.083c-1.797 2.725-5.013 4.157-8.24 3.669l-16.68-2.523c-2.005-.303-4.053.132-5.762 1.225l-14.212 9.089c-2.749 1.758-6.27 1.758-9.02 0l-14.212-9.089c-1.709-1.093-3.756-1.528-5.762-1.225l-16.68 2.523c-3.227.488-6.443-.944-8.24-3.669l-9.286-14.083c-1.117-1.693-2.81-2.924-4.765-3.462l-16.264-4.48c-3.146-.867-5.502-3.483-6.035-6.703l-2.755-16.643c-.331-2.001-1.378-3.814-2.945-5.101l-13.036-10.708c-2.522-2.072-3.61-5.42-2.787-8.578l4.252-16.325c.511-1.963.292-4.044-.616-5.858l-7.553-15.084c-1.461-2.918-1.093-6.42.943-8.97l10.525-13.184c1.265-1.585 1.912-3.576 1.82-5.602l-.765-16.852c-.148-3.26 1.612-6.309 4.51-7.811l14.977-7.763c1.801-.933 3.201-2.489 3.941-4.377l6.155-15.706c1.191-3.039 4.039-5.108 7.297-5.302l16.84-1.001c2.025-.12 3.937-.972 5.381-2.396l12.012-11.845c2.324-2.292 5.768-3.024 8.823-1.875l15.791 5.935c1.896.714 3.989.714 5.888 0z" fill="#fe255f"/><path d="m493.307 175.64c-.906 1.813-1.126 3.895-.618 5.857l4.253 16.326c.827 3.158-.269 6.505-2.789 8.576l-13.039 10.708c-1.564 1.285-2.61 3.098-2.939 5.1l-2.759 16.645c-.528 3.217-2.889 5.837-6.036 6.704l-16.256 4.482c-1.962.538-3.656 1.763-4.771 3.456l-9.284 14.085c-1.803 2.729-5.01 4.164-8.238 3.676l-16.685-2.53c-2.002-.299-4.054.139-5.757 1.225l-14.214 9.094c-2.749 1.753-6.275 1.753-9.025 0l-14.204-9.094c-1.713-1.086-3.755-1.524-5.767-1.225l-16.675 2.53c-3.227.488-6.445-.946-8.248-3.676l-9.283-14.085c-1.116-1.693-2.809-2.919-4.761-3.456l-16.266-4.482c-3.148-.867-5.498-3.486-6.036-6.704l-2.61-15.798c15.977 10.459 35.073 16.535 55.592 16.535 56.16 0 101.692-45.522 101.692-101.682 0-24.175-8.437-46.378-22.532-63.83l15.4.906c3.267.199 6.116 2.271 7.301 5.309l6.156 15.699c.737 1.893 2.142 3.446 3.945 4.383l14.971 7.76c2.899 1.504 4.662 4.552 4.512 7.809l-.767 16.854c-.09 2.032.558 4.024 1.823 5.608l10.529 13.178c2.032 2.55 2.401 6.056.936 8.975z" fill="#e01152"/></g><g><g><g><g><g><path d="m356.727 117.004c-10.425 0-18.907 8.482-18.907 18.908 0 10.425 8.482 18.907 18.907 18.907 10.426 0 18.908-8.482 18.908-18.907 0-10.426-8.482-18.908-18.908-18.908z" fill="#ffc751"/></g></g><g><g><path d="m422.602 182.879c-10.426 0-18.908 8.482-18.908 18.907 0 10.426 8.482 18.908 18.908 18.908 10.425 0 18.907-8.482 18.907-18.908 0-10.425-8.481-18.907-18.907-18.907z" fill="#ffc751"/></g></g></g><g><g><path d="m351.949 206.564c-5.938-5.938-5.938-15.566 0-21.505l57.852-57.852c5.938-5.938 15.566-5.938 21.505 0 5.938 5.938 5.938 15.566 0 21.505l-57.852 57.852c-5.938 5.938-15.566 5.938-21.505 0z" fill="#ffc751"/></g><path d="m390.021 146.988-10.832 10.832c-5.938 5.938-5.938 15.566 0 21.505 5.938 5.938 15.566 5.938 21.505 0l10.832-10.832c5.938-5.938 5.938-15.566 0-21.505-5.939-5.939-15.567-5.939-21.505 0z" fill="#ffe059"/></g></g></g></g><g><g><g><path d="m75.864 417.448-29.493 24.748c-4.81 4.036-11.981 3.409-16.016-1.401l-17.44-20.784c-4.036-4.81-3.409-11.981 1.401-16.016l29.493-24.748z" fill="#706c64"/><path d="m75.862 417.454-29.494 24.742c-3.83 3.222-9.17 3.473-13.203 1.003 2.728-8.545 2.758-18.019-.548-27.104-2.538-6.972-6.732-12.872-11.982-17.395l23.178-19.455z" fill="#595751"/><path d="m94.848 305.704 62.304 74.251s95.122-87.136 241.709-74.311l-188.859-225.073c-12.825 146.587-115.154 225.133-115.154 225.133z" fill="#706c64"/><path d="m210.006 80.575 188.857 225.071c-65.715-5.749-121.101 8.594-162.203 26.165 31.074-51.081 27.847-118.332-12.71-166.666-7.549-8.996-15.973-16.842-25.033-23.502 5.27-18.817 9.175-39.19 11.089-61.068z" fill="#595751"/><path d="m172.803 383.231-72.198 60.581c-9.62 8.072-23.961 6.817-32.033-2.803l-49.233-58.673c-8.072-9.62-6.817-23.961 2.803-32.033l72.198-60.581c4.81-4.036 11.981-3.409 16.016 1.401l63.848 76.091c4.036 4.81 3.409 11.981-1.401 16.017z" fill="#fe255f"/><path d="m189.008 492.231-20.39 17.109c-4.81 4.036-11.981 3.408-16.016-1.401l-63.396-75.552 53.609-44.983 48.893 90.726c2.558 4.745 1.43 10.635-2.7 14.101z" fill="#ffc751"/><path d="m184.366 464.504-41.551-77.101-36.946 31.001 47.825 56.995c4.036 4.81 11.207 5.437 16.016 1.401z" fill="#ff993a"/><path d="m396.584 315.471c-8.831 7.41-21.996 6.258-29.406-2.573l-169.821-202.385c-7.41-8.831-6.258-21.996 2.573-29.406 8.831-7.41 21.996-6.258 29.406 2.573l169.822 202.386c7.409 8.829 6.257 21.995-2.574 29.405z" fill="#8f8b81"/><path d="m295.343 162.343-34.609-41.245c-7.41-8.831-20.575-9.983-29.406-2.573-8.831 7.41-9.983 20.575-2.573 29.406l34.609 41.245c7.41 8.831 20.575 9.983 29.406 2.573 8.831-7.409 9.983-20.575 2.573-29.406z" fill="#b5b1a4"/><path d="m218.785 176.075-.123-.146c-9.58-11.417-27.763-8.551-33.542 5.188-12.126 28.831-26.943 52.839-41.042 71.832-5.5 7.408-5.218 17.607.712 24.675 8.251 9.833 23.54 9.421 31.192-.885 4.253-5.728 8.557-11.856 12.842-18.384 13.046-19.847 24.065-40.476 33.044-61.797 2.893-6.868 1.706-14.776-3.083-20.483z" fill="#8f8b81"/><path d="m185.196 180.935c-3.715 8.847-7.684 17.235-11.808 25.164-4.62 8.882-1.816 19.813 6.49 25.404.11.074.221.148.331.223 9.806 6.603 23.107 3.144 28.57-7.34 4.754-9.124 9.113-18.39 13.074-27.791 2.898-6.88 1.73-14.801-3.068-20.52l-.123-.146c-9.524-11.352-27.729-8.656-33.466 5.006z" fill="#b5b1a4"/><path d="m110.355 291.118 63.854 76.098c4.034 4.807 3.406 11.983-1.401 16.016l-72.196 60.58c-7.882 6.613-18.943 6.961-27.107 1.583 42.547-39.07 48.676-104.05 14.494-150.358l6.34-5.32c4.807-4.034 11.982-3.406 16.016 1.401z" fill="#e01152"/></g><path d="m80.426 349.897-25.066 21.033c-7.859 6.595-19.577 5.57-26.172-2.29-6.595-7.859-5.57-19.577 2.29-26.172l25.066-21.033c7.859-6.595 19.577-5.57 26.172 2.29 6.595 7.86 5.569 19.577-2.29 26.172z" fill="#fc709b"/></g></g><g><g><g><g><g><g><path d="m357.15 74.979c2.876-1.894 2.876-6.102 0-7.996-7.423-4.89-14.468-10.579-21.011-17.072s-12.275-13.485-17.203-20.851c-1.909-2.854-6.148-2.854-8.057 0-4.927 7.366-10.66 14.358-17.203 20.851s-13.588 12.182-21.011 17.072c-2.876 1.894-2.876 6.102 0 7.996 7.423 4.89 14.468 10.579 21.011 17.072s12.275 13.485 17.203 20.851c1.909 2.854 6.148 2.854 8.057 0 4.927-7.366 10.66-14.358 17.203-20.851s13.589-12.182 21.011-17.072z" fill="#ffe059"/></g></g><g><g><path d="m357.152 74.976c-7.422 4.89-14.466 10.577-21.012 17.073s-12.276 13.487-17.204 20.852c-1.91 2.849-6.144 2.849-8.054 0-4.927-7.365-10.658-14.356-17.204-20.852-.852-.845-1.715-1.678-2.591-2.499 1.156.097 2.324.145 3.504.145 22.46 0 40.77-17.7 41.525-39.808.012.012.012.012.024.024 6.546 6.496 13.59 12.183 21.012 17.073 2.871 1.895 2.871 6.096 0 7.992z" fill="#ffc751"/></g></g></g></g></g><g><g><g><g><g><path d="m379.023 25.366c1.518-1 1.518-3.22 0-4.22-3.918-2.581-7.636-5.583-11.09-9.01-3.453-3.427-6.479-7.117-9.08-11.005-1.008-1.506-3.245-1.506-4.253 0-2.601 3.888-5.626 7.578-9.08 11.005s-7.172 6.43-11.09 9.01c-1.518 1-1.518 3.22 0 4.22 3.918 2.581 7.636 5.583 11.09 9.01s6.479 7.117 9.08 11.005c1.008 1.506 3.245 1.506 4.253 0 2.601-3.888 5.626-7.578 9.08-11.005s7.172-6.429 11.09-9.01z" fill="#ffe059"/></g></g><g><g><path d="m379.024 25.364c-3.917 2.581-7.635 5.582-11.09 9.011s-6.479 7.118-9.08 11.006c-1.008 1.504-3.243 1.504-4.251 0-2.601-3.887-5.625-7.577-9.08-11.006-.449-.446-.905-.886-1.368-1.319.61.051 1.227.076 1.849.076 11.854 0 21.519-9.342 21.917-21.011.006.006.006.006.013.013 3.455 3.429 7.173 6.43 11.09 9.011 1.515 1.001 1.515 3.219 0 4.219z" fill="#ffc751"/></g></g></g></g></g></g></g></svg>